<svg xmlns="http://www.w3.org/2000/svg" width="36" height="28" viewBox="0 0 36 28">
  <defs>
    <linearGradient id="rainbow" x1="0" y1="0" x2="1" y2="0">
      <stop offset="0%"   stop-color="#FF0000"/>
      <stop offset="16%"  stop-color="#FF8800"/>
      <stop offset="33%"  stop-color="#FFDD00"/>
      <stop offset="50%"  stop-color="#00CC44"/>
      <stop offset="66%"  stop-color="#0088FF"/>
      <stop offset="83%"  stop-color="#6644FF"/>
      <stop offset="100%" stop-color="#DD00FF"/>
    </linearGradient>
  </defs>
  <!-- Keyboard body -->
  <rect x="0.5" y="0.5" width="35" height="27" rx="3" ry="3" fill="#1a1a1a" stroke="#333" stroke-width="0.5"/>
  <!-- Row 1: 10 keys -->
  <rect x="3"  y="3"  width="2.5" height="3.5" rx="0.5" fill="url(#rainbow)" opacity="0.95"/>
  <rect x="6"  y="3"  width="2.5" height="3.5" rx="0.5" fill="url(#rainbow)" opacity="0.95"/>
  <rect x="9"  y="3"  width="2.5" height="3.5" rx="0.5" fill="url(#rainbow)" opacity="0.95"/>
  <rect x="12" y="3"  width="2.5" height="3.5" rx="0.5" fill="url(#rainbow)" opacity="0.95"/>
  <rect x="15" y="3"  width="2.5" height="3.5" rx="0.5" fill="url(#rainbow)" opacity="0.95"/>
  <rect x="18" y="3"  width="2.5" height="3.5" rx="0.5" fill="url(#rainbow)" opacity="0.95"/>
  <rect x="21" y="3"  width="2.5" height="3.5" rx="0.5" fill="url(#rainbow)" opacity="0.95"/>
  <rect x="24" y="3"  width="2.5" height="3.5" rx="0.5" fill="url(#rainbow)" opacity="0.95"/>
  <rect x="27" y="3"  width="2.5" height="3.5" rx="0.5" fill="url(#rainbow)" opacity="0.95"/>
  <rect x="30" y="3"  width="2.5" height="3.5" rx="0.5" fill="url(#rainbow)" opacity="0.95"/>
  <!-- Row 2: 9 keys offset -->
  <rect x="4"  y="7.5" width="2.5" height="3.5" rx="0.5" fill="url(#rainbow)" opacity="0.85"/>
  <rect x="7"  y="7.5" width="2.5" height="3.5" rx="0.5" fill="url(#rainbow)" opacity="0.85"/>
  <rect x="10" y="7.5" width="2.5" height="3.5" rx="0.5" fill="url(#rainbow)" opacity="0.85"/>
  <rect x="13" y="7.5" width="2.5" height="3.5" rx="0.5" fill="url(#rainbow)" opacity="0.85"/>
  <rect x="16" y="7.5" width="2.5" height="3.5" rx="0.5" fill="url(#rainbow)" opacity="0.85"/>
  <rect x="19" y="7.5" width="2.5" height="3.5" rx="0.5" fill="url(#rainbow)" opacity="0.85"/>
  <rect x="22" y="7.5" width="2.5" height="3.5" rx="0.5" fill="url(#rainbow)" opacity="0.85"/>
  <rect x="25" y="7.5" width="2.5" height="3.5" rx="0.5" fill="url(#rainbow)" opacity="0.85"/>
  <rect x="28" y="7.5" width="5"   height="3.5" rx="0.5" fill="url(#rainbow)" opacity="0.85"/>
  <!-- Row 3: 8 keys offset -->
  <rect x="3"  y="12" width="4"   height="3.5" rx="0.5" fill="url(#rainbow)" opacity="0.75"/>
  <rect x="7.5" y="12" width="2.5" height="3.5" rx="0.5" fill="url(#rainbow)" opacity="0.75"/>
  <rect x="10.5" y="12" width="2.5" height="3.5" rx="0.5" fill="url(#rainbow)" opacity="0.75"/>
  <rect x="13.5" y="12" width="2.5" height="3.5" rx="0.5" fill="url(#rainbow)" opacity="0.75"/>
  <rect x="16.5" y="12" width="2.5" height="3.5" rx="0.5" fill="url(#rainbow)" opacity="0.75"/>
  <rect x="19.5" y="12" width="2.5" height="3.5" rx="0.5" fill="url(#rainbow)" opacity="0.75"/>
  <rect x="22.5" y="12" width="2.5" height="3.5" rx="0.5" fill="url(#rainbow)" opacity="0.75"/>
  <rect x="25.5" y="12" width="7"   height="3.5" rx="0.5" fill="url(#rainbow)" opacity="0.75"/>
  <!-- Row 4: bottom with spacebar -->
  <rect x="3"  y="16.5" width="3.5" height="3.5" rx="0.5" fill="url(#rainbow)" opacity="0.65"/>
  <rect x="7"  y="16.5" width="3.5" height="3.5" rx="0.5" fill="url(#rainbow)" opacity="0.65"/>
  <rect x="11" y="16.5" width="14"  height="3.5" rx="0.5" fill="url(#rainbow)" opacity="0.65"/>
  <rect x="25.5" y="16.5" width="3.5" height="3.5" rx="0.5" fill="url(#rainbow)" opacity="0.65"/>
  <rect x="29.5" y="16.5" width="3.5" height="3.5" rx="0.5" fill="url(#rainbow)" opacity="0.65"/>
  <!-- Ripple ring effect - subtle -->
  <circle cx="16" cy="11" r="5" fill="none" stroke="white" stroke-width="0.6" opacity="0.35"/>
  <circle cx="16" cy="11" r="8" fill="none" stroke="white" stroke-width="0.4" opacity="0.2"/>
</svg>
